<svg 
 xmlns="http://www.w3.org/2000/svg"
 xmlns:xlink="http://www.w3.org/1999/xlink"
 width="39px" height="42px">
<path fill-rule="evenodd"  fill="rgb(215, 156, 0)"
 d="M35.278,28.572 C35.620,28.299 36.029,28.231 36.645,28.231 C37.604,28.231 38.630,29.251 38.630,30.542 C38.630,31.834 37.807,32.921 36.440,32.921 C35.003,32.921 33.771,31.696 33.771,30.542 L24.946,30.542 L20.635,37.000 C21.251,37.272 21.935,37.951 21.935,39.173 C21.935,40.262 20.909,41.214 19.609,41.214 C18.309,41.214 17.283,40.262 17.283,39.173 C17.283,37.951 17.967,37.272 18.583,37.000 L14.273,30.542 L5.447,30.542 C5.447,31.696 4.215,32.921 2.779,32.921 C1.411,32.921 0.589,31.834 0.589,30.542 C0.589,29.251 1.615,28.231 2.573,28.231 C3.189,28.231 3.599,28.299 3.941,28.572 L8.525,21.027 L3.941,13.413 C3.599,13.685 3.189,13.755 2.573,13.755 C1.615,13.755 0.589,12.734 0.589,11.442 C0.589,10.151 1.411,9.132 2.779,9.132 C4.215,9.132 5.447,10.288 5.447,11.442 L14.273,11.442 L18.583,4.987 C17.967,4.715 17.283,4.036 17.283,2.879 C17.283,1.792 18.309,0.773 19.609,0.773 C20.909,0.773 21.935,1.792 21.935,2.879 C21.935,4.036 21.251,4.715 20.635,4.987 L24.946,11.442 L33.771,11.442 C33.771,10.288 35.003,9.132 36.440,9.132 C37.807,9.132 38.630,10.151 38.630,11.442 C38.630,12.734 37.604,13.755 36.645,13.755 C36.029,13.755 35.620,13.685 35.278,13.413 L30.693,21.027 L35.278,28.572 Z"/>
</svg>